# File generated by ImageToStl.com - Free Image and 3D model conversion tools

o obj1
v 0.07478878 0.0488789 0.02945
v 0.06849156 0.04258168 0.02945
v 0.06666652 -0.06536163 0.02945
v -0.05834354 0.21075 0.02945
v -0.05834354 0.18875 0.02945
v -0.05792641 0.19850001 0.02945
v -0.05792641 0.18875 0.02945
v 0.05582219 0.21075 0.02945
v 0.05540506 0.19850001 0.02945
v 0.05582219 0.18875 0.02945
v 0.05540506 0.18875 0.02945
v 0.05540506 0.10071009 0.02945
v -0.05792641 0.10071009 0.02945
v -0.05834354 0.08769774 0.02945
v 0.05582219 0.08769774 0.02945
v 0.05123932 0.243 0.02945
v 0.05582219 0.2485 0.02945
v -0.05376067 0.243 0.02945
v -0.05834354 0.2485 0.02945
v -0.05626068 0.24233013 0.02945
v -0.0580908 0.2405 0.02945
v -0.07001068 0.2485 0.02945
v -0.05876068 0.23800001 0.02945
v -0.05876068 0.228 0.02945
v -0.07001068 0.21075 0.02945
v -0.0580908 0.2255 0.02945
v 0.05556945 0.2255 0.02945
v 0.05373932 0.22366987 0.02945
v 0.05123932 0.223 0.02945
v -0.05376067 0.223 0.02945
v -0.05626068 0.22366987 0.02945
v 0.05373932 0.24233013 0.02945
v 0.05556945 0.2405 0.02945
v 0.06666652 0.2485 0.02945
v 0.05623933 0.23800001 0.02945
v 0.06666652 0.21075 0.02945
v 0.05623933 0.228 0.02945
v 0.05123932 -0.223 0.02945
v 0.05373932 -0.22366987 0.02945
v 0.05582219 -0.20100001 0.02945
v -0.05834354 -0.20100001 0.02945
v -0.0580908 -0.2255 0.02945
v -0.05626068 -0.22366987 0.02945
v -0.05376067 -0.223 0.02945
v -0.05876068 -0.23800001 0.02945
v -0.05876068 -0.228 0.02945
v -0.07001068 -0.20100001 0.02945
v -0.07001068 -0.2485 0.02945
v -0.0580908 -0.2405 0.02945
v -0.05834354 -0.2485 0.02945
v -0.05626068 -0.24233013 0.02945
v 0.05582219 -0.2485 0.02945
v 0.05123932 -0.243 0.02945
v -0.05376067 -0.243 0.02945
v 0.05556945 -0.2255 0.02945
v 0.05623933 -0.228 0.02945
v 0.06666652 -0.20100001 0.02945
v 0.06666652 -0.2485 0.02945
v 0.05623933 -0.23800001 0.02945
v 0.05556945 -0.2405 0.02945
v 0.05373932 -0.24233013 0.02945
v 0.0598894 0.04027674 0.02945
v 0.05128723 0.04258168 0.02945
v -0.05834354 -0.06536163 0.02945
v 0.04499001 0.0488789 0.02945
v 0.04268507 0.05748107 0.02945
v 0.04499001 0.06608323 0.02945
v 0.05128723 0.07238045 0.02945
v 0.06849156 0.07238045 0.02945
v 0.07478878 0.06608323 0.02945
v 0.07791653 0.08769774 0.02945
v 0.07709373 0.05748107 0.02945
v 0.07791653 -0.06536163 0.02945
v -0.10126068 -0.20100001 0.02945
v -0.10126068 -0.2485 0.02945
v 0.07791653 -0.2485 0.02945
v 0.09873933 -0.2485 0.02945
v 0.07791653 -0.20100001 0.02945
v 0.09873933 -0.20100001 0.02945
v -0.08526067 -0.171 0.02945
v -0.08326068 -0.17153589 0.02945
v -0.07001068 -0.06536163 0.02945
v -0.08872478 -0.17299999 0.02945
v -0.10126068 -0.06536163 0.02945
v -0.08926068 -0.175 0.02945
v -0.08872478 -0.177 0.02945
v -0.08726068 -0.17153589 0.02945
v -0.08179657 -0.17299999 0.02945
v -0.08126067 -0.175 0.02945
v -0.08179657 -0.177 0.02945
v -0.08326068 -0.1784641 0.02945
v -0.08526067 -0.17900001 0.02945
v -0.08726068 -0.1784641 0.02945
v 0.05582219 -0.06536163 0.02945
v 0.08273932 -0.171 0.02945
v 0.08473933 -0.17153589 0.02945
v 0.09873933 -0.06536163 0.02945
v 0.08073933 -0.1784641 0.02945
v 0.07927522 -0.177 0.02945
v 0.07873932 -0.175 0.02945
v 0.07927522 -0.17299999 0.02945
v 0.08073933 -0.17153589 0.02945
v 0.08620343 -0.17299999 0.02945
v 0.08673932 -0.175 0.02945
v 0.08620343 -0.177 0.02945
v 0.08473933 -0.1784641 0.02945
v 0.08273932 -0.17900001 0.02945
v 0.09873933 0.08769774 0.02945
v -0.08872478 0.177 0.02945
v -0.08726068 0.1784641 0.02945
v -0.10126068 0.18875 0.02945
v -0.08526067 0.17900001 0.02945
v -0.08326068 0.1784641 0.02945
v -0.07001068 0.18875 0.02945
v -0.08179657 0.177 0.02945
v -0.08126067 0.175 0.02945
v -0.07001068 0.08769774 0.02945
v -0.08179657 0.17299999 0.02945
v -0.08326068 0.17153589 0.02945
v -0.08526067 0.171 0.02945
v -0.10126068 0.08769774 0.02945
v -0.08726068 0.17153589 0.02945
v -0.08872478 0.17299999 0.02945
v -0.08926068 0.175 0.02945
v 0.08273932 0.17900001 0.02945
v 0.08473933 0.1784641 0.02945
v 0.09873933 0.18875 0.02945
v 0.08620343 0.177 0.02945
v 0.08673932 0.175 0.02945
v 0.08620343 0.17299999 0.02945
v 0.08473933 0.17153589 0.02945
v 0.08273932 0.171 0.02945
v 0.08073933 0.17153589 0.02945
v 0.07927522 0.17299999 0.02945
v 0.07873932 0.175 0.02945
v 0.07791653 0.18875 0.02945
v 0.07927522 0.177 0.02945
v 0.08073933 0.1784641 0.02945
v 0.06666652 0.08769774 0.02945
v 0.06666652 0.18875 0.02945
v -0.10126068 0.21075 0.02945
v -0.10126068 0.2485 0.02945
v 0.0598894 0.07468539 0.02945
v 0.07791653 0.21075 0.02945
v 0.07791653 0.2485 0.02945
v 0.09873933 0.21075 0.02945
v 0.09873933 0.2485 0.02945
v -0.10126068 0.2485 -0.0278
v -0.10126068 -0.2485 -0.0278
v 0.09873933 0.2485 -0.0278
v 0.09873933 -0.2485 -0.0278
v 0.08473933 0.17153589 -0.0278
v 0.08620343 0.17299999 -0.0278
v 0.08673932 0.175 -0.0278
v -0.08326068 -0.1784641 -0.0278
v -0.08526067 -0.17900001 -0.0278
v -0.08726068 -0.1784641 -0.0278
v 0.08620343 0.177 -0.0278
v 0.08473933 0.1784641 -0.0278
v 0.08273932 0.17900001 -0.0278
v -0.08179657 -0.17299999 -0.0278
v 0.08273932 -0.171 -0.0278
v -0.08126067 -0.175 -0.0278
v 0.08073933 -0.17153589 -0.0278
v 0.08273932 -0.17900001 -0.0278
v 0.08473933 -0.1784641 -0.0278
v 0.07927522 -0.17299999 -0.0278
v -0.08179657 -0.177 -0.0278
v 0.08620343 -0.17299999 -0.0278
v 0.08673932 -0.175 -0.0278
v 0.08620343 -0.177 -0.0278
v -0.08326068 -0.17153589 -0.0278
v 0.08473933 -0.17153589 -0.0278
v -0.08326068 0.17153589 -0.0278
v -0.08526067 0.171 -0.0278
v -0.08726068 0.17153589 -0.0278
v 0.07873932 -0.175 -0.0278
v 0.07927522 -0.177 -0.0278
v 0.08073933 -0.1784641 -0.0278
v -0.08526067 -0.171 -0.0278
v 0.08073933 0.17153589 -0.0278
v 0.08273932 0.171 -0.0278
v -0.08726068 0.1784641 -0.0278
v -0.08872478 0.177 -0.0278
v -0.08926068 0.175 -0.0278
v -0.08872478 0.17299999 -0.0278
v 0.08073933 0.1784641 -0.0278
v -0.08126067 0.175 -0.0278
v -0.08179657 0.177 -0.0278
v -0.08326068 0.1784641 -0.0278
v -0.08526067 0.17900001 -0.0278
v 0.07927522 0.177 -0.0278
v -0.08179657 0.17299999 -0.0278
v 0.07873932 0.175 -0.0278
v 0.07927522 0.17299999 -0.0278
v -0.08726068 -0.17153589 -0.0278
v -0.08872478 -0.17299999 -0.0278
v -0.08926068 -0.175 -0.0278
v -0.08872478 -0.177 -0.0278
v 0.07927522 -0.177 -0.0443
v 0.08073933 -0.1784641 -0.0443
v 0.08273932 -0.17900001 -0.0443
v 0.08473933 -0.1784641 -0.0443
v 0.08620343 -0.177 -0.0443
v 0.08673932 -0.175 -0.0443
v 0.08620343 -0.17299999 -0.0443
v 0.08473933 -0.17153589 -0.0443
v 0.08273932 -0.171 -0.0443
v 0.08073933 -0.17153589 -0.0443
v 0.07927522 -0.17299999 -0.0443
v 0.07873932 -0.175 -0.0443
v 0.08273932 -0.175 -0.0443
v -0.08872478 -0.177 -0.0443
v -0.08726068 -0.1784641 -0.0443
v -0.08526067 -0.17900001 -0.0443
v -0.08326068 -0.1784641 -0.0443
v -0.08179657 -0.177 -0.0443
v -0.08126067 -0.175 -0.0443
v -0.08179657 -0.17299999 -0.0443
v -0.08326068 -0.17153589 -0.0443
v -0.08526067 -0.171 -0.0443
v -0.08726068 -0.17153589 -0.0443
v -0.08872478 -0.17299999 -0.0443
v -0.08926068 -0.175 -0.0443
v -0.08526067 -0.175 -0.0443
v -0.08872478 0.17299999 -0.0443
v -0.08726068 0.17153589 -0.0443
v -0.08526067 0.171 -0.0443
v -0.08326068 0.17153589 -0.0443
v -0.08179657 0.17299999 -0.0443
v -0.08126067 0.175 -0.0443
v -0.08179657 0.177 -0.0443
v -0.08326068 0.1784641 -0.0443
v -0.08526067 0.17900001 -0.0443
v -0.08726068 0.1784641 -0.0443
v -0.08872478 0.177 -0.0443
v -0.08926068 0.175 -0.0443
v -0.08526067 0.175 -0.0443
v 0.07927522 0.17299999 -0.0443
v 0.08073933 0.17153589 -0.0443
v 0.08273932 0.171 -0.0443
v 0.08473933 0.17153589 -0.0443
v 0.08620343 0.17299999 -0.0443
v 0.08673932 0.175 -0.0443
v 0.08620343 0.177 -0.0443
v 0.08473933 0.1784641 -0.0443
v 0.08273932 0.17900001 -0.0443
v 0.08073933 0.1784641 -0.0443
v 0.07927522 0.177 -0.0443
v 0.07873932 0.175 -0.0443
v 0.08273932 0.175 -0.0443
v 0.08620343 -0.177 0.04595
v 0.08473933 -0.1784641 0.04595
v 0.08273932 -0.17900001 0.04595
v 0.08073933 -0.1784641 0.04595
v 0.07927522 -0.177 0.04595
v 0.07873932 -0.175 0.04595
v 0.07927522 -0.17299999 0.04595
v 0.08073933 -0.17153589 0.04595
v 0.08273932 -0.171 0.04595
v 0.08473933 -0.17153589 0.04595
v 0.08620343 -0.17299999 0.04595
v 0.08673932 -0.175 0.04595
v 0.08273932 -0.175 0.04595
v -0.08179657 -0.177 0.04595
v -0.08326068 -0.1784641 0.04595
v -0.08526067 -0.17900001 0.04595
v -0.08726068 -0.1784641 0.04595
v -0.08872478 -0.177 0.04595
v -0.08926068 -0.175 0.04595
v -0.08872478 -0.17299999 0.04595
v -0.08726068 -0.17153589 0.04595
v -0.08526067 -0.171 0.04595
v -0.08326068 -0.17153589 0.04595
v -0.08179657 -0.17299999 0.04595
v -0.08126067 -0.175 0.04595
v -0.08526067 -0.175 0.04595
v -0.08179657 0.17299999 0.04595
v -0.08326068 0.17153589 0.04595
v -0.08526067 0.171 0.04595
v -0.08726068 0.17153589 0.04595
v -0.08872478 0.17299999 0.04595
v -0.08926068 0.175 0.04595
v -0.08872478 0.177 0.04595
v -0.08726068 0.1784641 0.04595
v -0.08526067 0.17900001 0.04595
v -0.08326068 0.1784641 0.04595
v -0.08179657 0.177 0.04595
v -0.08126067 0.175 0.04595
v -0.08526067 0.175 0.04595
v 0.08620343 0.17299999 0.04595
v 0.08473933 0.17153589 0.04595
v 0.08273932 0.171 0.04595
v 0.08073933 0.17153589 0.04595
v 0.07927522 0.17299999 0.04595
v 0.07873932 0.175 0.04595
v 0.07927522 0.177 0.04595
v 0.08073933 0.1784641 0.04595
v 0.08273932 0.17900001 0.04595
v 0.08473933 0.1784641 0.04595
v 0.08620343 0.177 0.04595
v 0.08673932 0.175 0.04595
v 0.08273932 0.175 0.04595
v 0.05623933 -0.23800001 0.07195
v 0.05623933 -0.228 0.07195
v -0.05376067 -0.223 0.07195
v 0.05123932 -0.223 0.07195
v -0.05876068 -0.23800001 0.07195
v -0.05876068 -0.228 0.07195
v -0.05376067 -0.243 0.07195
v 0.05123932 -0.243 0.07195
v 0.05123932 -0.23800001 0.07695001
v 0.05123932 -0.228 0.07695001
v -0.05376067 -0.23800001 0.07695001
v -0.05376067 -0.228 0.07695001
v 0.05623933 0.228 0.07195
v 0.05623933 0.23800001 0.07195
v 0.05123932 0.243 0.07195
v -0.05376067 0.243 0.07195
v -0.05876068 0.228 0.07195
v -0.05876068 0.23800001 0.07195
v 0.05123932 0.223 0.07195
v -0.05376067 0.223 0.07195
v 0.05123932 0.228 0.07695001
v 0.05123932 0.23800001 0.07695001
v -0.05376067 0.228 0.07695001
v -0.05376067 0.23800001 0.07695001
v -0.05626068 0.24233013 0.07195
v -0.0580908 0.2405 0.07195
v -0.05376067 0.24233013 0.07445
v 0.05123932 0.24233013 0.07445
v -0.05376067 0.2405 0.07628013
v 0.05123932 0.2405 0.07628013
v 0.05556945 0.2405 0.07195
v 0.05373932 0.24233013 0.07195
v -0.05592574 0.2405 0.0757
v -0.05592574 0.24233013 0.0732
v -0.05501068 0.24233013 0.07411507
v -0.05751067 0.2405 0.07411507
v -0.05626068 0.23800001 0.07628013
v -0.0580908 0.23800001 0.07445
v 0.05498932 0.2405 0.07411507
v 0.05248933 0.24233013 0.07411507
v 0.05340439 0.24233013 0.0732
v 0.05340439 0.2405 0.0757
v 0.05556945 0.23800001 0.07445
v 0.05373932 0.23800001 0.07628013
v -0.0580908 0.2255 0.07195
v -0.05626068 0.22366987 0.07195
v -0.0580908 0.228 0.07445
v -0.05626068 0.228 0.07628013
v 0.05556945 0.228 0.07445
v 0.05373932 0.228 0.07628013
v 0.05373932 0.22366987 0.07195
v 0.05556945 0.2255 0.07195
v -0.05626068 0.22583494 0.0757
v -0.0580908 0.22583494 0.0732
v -0.0580908 0.22675 0.07411507
v -0.05626068 0.22425 0.07411507
v -0.05376067 0.2255 0.07628013
v -0.05376067 0.22366987 0.07445
v 0.05373932 0.22425 0.07411507
v 0.05556945 0.22675 0.07411507
v 0.05556945 0.22583494 0.0732
v 0.05373932 0.22583494 0.0757
v 0.05123932 0.22366987 0.07445
v 0.05123932 0.2255 0.07628013
v -0.0580908 -0.2405 0.07195
v -0.05626068 -0.24233013 0.07195
v -0.05626068 -0.228 0.07628013
v -0.05626068 -0.23800001 0.07628013
v -0.0580908 -0.228 0.07445
v -0.0580908 -0.23800001 0.07445
v -0.05626068 -0.22366987 0.07195
v -0.0580908 -0.2255 0.07195
v -0.05626068 -0.24016507 0.0757
v -0.0580908 -0.24016507 0.0732
v -0.0580908 -0.23925 0.07411507
v -0.05626068 -0.24175 0.07411507
v -0.05376067 -0.2405 0.07628013
v -0.05376067 -0.24233013 0.07445
v -0.05626068 -0.22425 0.07411507
v -0.0580908 -0.22675 0.07411507
v -0.0580908 -0.22583494 0.0732
v -0.05626068 -0.22583494 0.0757
v -0.05376067 -0.22366987 0.07445
v -0.05376067 -0.2255 0.07628013
v 0.05373932 -0.24233013 0.07195
v 0.05556945 -0.2405 0.07195
v 0.05123932 -0.2405 0.07628013
v 0.05123932 -0.24233013 0.07445
v 0.05123932 -0.2255 0.07628013
v 0.05123932 -0.22366987 0.07445
v 0.05556945 -0.2255 0.07195
v 0.05373932 -0.22366987 0.07195
v 0.05340439 -0.2405 0.0757
v 0.05340439 -0.24233013 0.0732
v 0.05248933 -0.24233013 0.07411507
v 0.05498932 -0.2405 0.07411507
v 0.05373932 -0.23800001 0.07628013
v 0.05556945 -0.23800001 0.07445
v 0.05498932 -0.2255 0.07411507
v 0.05248933 -0.22366987 0.07411507
v 0.05340439 -0.22366987 0.0732
v 0.05340439 -0.2255 0.0757
v 0.05556945 -0.228 0.07445
v 0.05373932 -0.228 0.07628013
v 0.05540506 0.19850001 0.08145
v 0.05540506 0.10071009 0.08145
v -0.05792641 0.19850001 0.08145
v -0.05792641 0.10071009 0.08145
v 0.07478878 0.0488789 0.04445
v 0.06849156 0.04258168 0.04445
v 0.0598894 0.04027674 0.04445
v 0.05128723 0.04258168 0.04445
v 0.04499001 0.0488789 0.04445
v 0.04268507 0.05748107 0.04445
v 0.04499001 0.06608323 0.04445
v 0.05128723 0.07238045 0.04445
v 0.0598894 0.07468539 0.04445
v 0.06849156 0.07238045 0.04445
v 0.07478878 0.06608323 0.04445
v 0.07709373 0.05748107 0.04445
v 0.0598894 0.05748107 0.04445
vn -0 0 1
vn -1 0 0
vn 0 1 -0
vn 1 -0 -0
vn -0 -1 0
vn 0 -0 -1
vn -0.96593 -0.25882 0
vn -0.7071 -0.70711 0
vn -0.25882 -0.96592 0
vn 0.25882 -0.96593 0
vn 0.70711 -0.70711 -0
vn 0.96593 -0.25882 -0
vn 0.96593 0.25882 -0
vn 0.70711 0.70711 -0
vn 0.25881 0.96593 -0
vn -0.25882 0.96593 -0
vn -0.7071 0.70711 0
vn -0.96593 0.25882 0
vn -0.70711 -0.70711 0
vn -0.25882 -0.96593 0
vn 0.25882 -0.96592 0
vn 0.7071 -0.70711 -0
vn 0.7071 0.70711 -0
vn 0.25882 0.96593 -0
vn -0.25881 0.96593 -0
vn -0.70711 0.70711 0
vn -0.25881 -0.96593 0
vn 0.25882 -0.96593 0
vn 0.25882 0.96592 -0
vn -0.25882 0.96593 -0
vn -0.25882 -0.96593 0
vn 0.25881 -0.96593 0
vn 0.25882 0.96593 -0
vn -0.25882 0.96592 -0
vn -0.25882 0.96593 -0
vn -0.70711 0.70711 0
vn -0.96593 0.25882 0
vn 0 0.96593 0.25882
vn 0 0.70711 0.70711
vn 0 0.25882 0.96593
vn 0.96593 0.25882 -0
vn 0.70711 0.70711 -0
vn 0.25882 0.96593 -0
vn -0.25056 0.25056 0.93511
vn -0.2582 0.96361 0.06918
vn -0.18616 0.69475 0.69475
vn -0.50859 0.69474 0.50859
vn -0.50859 0.69475 0.50859
vn -0.69475 0.69475 0.18616
vn -0.69475 0.69475 0.18616
vn -0.25056 0.25056 0.93511
vn -0.68455 0.25056 0.68455
vn -0.68455 0.25056 0.68455
vn -0.93511 0.25056 0.25056
vn -0.93511 0.25056 0.25056
vn -0.18901 0.96361 0.18901
vn -0.18615 0.69475 0.69475
vn -0.06918 0.96361 0.2582
vn 0.93511 0.25056 0.25056
vn 0.06918 0.96361 0.2582
vn 0.69475 0.69475 0.18616
vn 0.50859 0.69475 0.50859
vn 0.50859 0.69475 0.50859
vn 0.18616 0.69474 0.69475
vn 0.18616 0.69475 0.69475
vn 0.93511 0.25056 0.25056
vn 0.68455 0.25056 0.68455
vn 0.68455 0.25056 0.68455
vn 0.25056 0.25056 0.93511
vn 0.25056 0.25056 0.93511
vn 0.18901 0.96361 0.18901
vn 0.69475 0.69475 0.18616
vn 0.2582 0.96361 0.06918
vn -0.96593 -0.25882 0
vn -0.70711 -0.70711 0
vn -0.25882 -0.96593 0
vn -0.96593 0 0.25882
vn -0.70711 0 0.70711
vn -0.25882 0 0.96593
vn 0.96593 -0 0.25882
vn 0.70711 -0 0.70711
vn 0.25882 -0 0.96593
vn 0.25882 -0.96593 0
vn 0.70711 -0.70711 -0
vn 0.96593 -0.25882 -0
vn -0.25056 -0.25056 0.93511
vn -0.96361 -0.2582 0.06918
vn -0.69475 -0.18616 0.69475
vn -0.69475 -0.50859 0.50859
vn -0.69475 -0.69475 0.18616
vn -0.69475 -0.69475 0.18616
vn -0.25056 -0.25056 0.93511
vn -0.25056 -0.68455 0.68455
vn -0.25056 -0.93511 0.25056
vn -0.25056 -0.93511 0.25056
vn -0.96361 -0.18902 0.18902
vn -0.69475 -0.18616 0.69475
vn -0.96361 -0.06918 0.2582
vn 0.25056 -0.93511 0.25056
vn 0.96361 -0.06918 0.2582
vn 0.69475 -0.69475 0.18616
vn 0.69475 -0.50859 0.50859
vn 0.69475 -0.18616 0.69475
vn 0.69475 -0.18616 0.69475
vn 0.25056 -0.93511 0.25056
vn 0.25056 -0.68455 0.68455
vn 0.25056 -0.25056 0.93511
vn 0.25056 -0.25056 0.93511
vn 0.96361 -0.18902 0.18902
vn 0.69475 -0.69475 0.18616
vn 0.96361 -0.2582 0.06918
vn -0 -0.96593 0.25882
vn -0 -0.70711 0.70711
vn -0 -0.25882 0.96593
vn -0.25056 0.93511 0.25056
vn -0.96361 0.06918 0.2582
vn -0.69475 0.69475 0.18616
vn -0.69475 0.50859 0.50859
vn -0.69475 0.18616 0.69475
vn -0.69475 0.18616 0.69475
vn -0.25056 0.93511 0.25056
vn -0.25056 0.68455 0.68455
vn -0.25056 0.25056 0.93511
vn -0.25056 0.25056 0.93511
vn -0.96361 0.18902 0.18902
vn -0.69475 0.69475 0.18616
vn -0.96361 0.2582 0.06918
vn 0.25056 -0.25056 0.93511
vn 0.2582 -0.96361 0.06918
vn 0.18616 -0.69475 0.69475
vn 0.50859 -0.69474 0.50859
vn 0.50859 -0.69475 0.50859
vn 0.69475 -0.69475 0.18616
vn 0.69475 -0.69475 0.18616
vn 0.25056 -0.25056 0.93511
vn 0.68455 -0.25056 0.68455
vn 0.68455 -0.25056 0.68455
vn 0.93511 -0.25056 0.25056
vn 0.93511 -0.25056 0.25056
vn 0.18901 -0.96361 0.18901
vn 0.18615 -0.69475 0.69475
vn 0.06918 -0.96361 0.2582
vn 0.96593 -0.25882 -0
vn 0.70711 -0.70711 -0
vn 0.25882 -0.96593 0
vn -0.25882 -0.96593 0
vn -0.96593 -0.25882 0
vn -0.96593 0.25882 0
vn -0.70711 0.70711 0
vn -0.25882 0.96593 -0
vn 0.25882 0.96593 -0
vn 0.70711 0.70711 -0
vn 0.96593 0.25882 -0
f 1//1 2//1 3//1
f 4//1 5//1 6//1
f 6//1 5//1 7//1
f 4//1 6//1 8//1
f 8//1 6//1 9//1
f 8//1 9//1 10//1
f 10//1 9//1 11//1
f 10//1 11//1 12//1
f 7//1 5//1 13//1
f 13//1 5//1 14//1
f 13//1 14//1 12//1
f 12//1 14//1 15//1
f 12//1 15//1 10//1
f 16//1 17//1 18//1
f 18//1 17//1 19//1
f 18//1 19//1 20//1
f 20//1 19//1 21//1
f 21//1 19//1 22//1
f 21//1 22//1 23//1
f 23//1 22//1 24//1
f 24//1 22//1 25//1
f 24//1 25//1 26//1
f 27//1 28//1 8//1
f 8//1 28//1 29//1
f 8//1 29//1 4//1
f 4//1 29//1 30//1
f 4//1 30//1 31//1
f 16//1 32//1 17//1
f 17//1 32//1 33//1
f 17//1 33//1 34//1
f 34//1 33//1 35//1
f 34//1 35//1 36//1
f 36//1 35//1 37//1
f 38//1 39//1 40//1
f 41//1 42//1 43//1
f 38//1 40//1 44//1
f 45//1 46//1 47//1
f 45//1 48//1 49//1
f 49//1 48//1 50//1
f 49//1 50//1 51//1
f 52//1 53//1 50//1
f 50//1 53//1 54//1
f 50//1 54//1 51//1
f 55//1 56//1 57//1
f 57//1 56//1 58//1
f 56//1 59//1 58//1
f 58//1 59//1 60//1
f 58//1 60//1 52//1
f 52//1 60//1 61//1
f 52//1 61//1 53//1
f 62//1 63//1 64//1
f 64//1 63//1 65//1
f 64//1 65//1 14//1
f 65//1 66//1 14//1
f 14//1 66//1 67//1
f 14//1 67//1 15//1
f 15//1 67//1 68//1
f 69//1 70//1 71//1
f 71//1 70//1 72//1
f 71//1 72//1 73//1
f 45//1 47//1 48//1
f 48//1 47//1 74//1
f 48//1 74//1 75//1
f 76//1 77//1 78//1
f 78//1 77//1 79//1
f 80//1 81//1 82//1
f 83//1 84//1 85//1
f 85//1 84//1 74//1
f 85//1 74//1 86//1
f 80//1 82//1 87//1
f 81//1 88//1 82//1
f 82//1 88//1 89//1
f 82//1 89//1 47//1
f 47//1 89//1 90//1
f 90//1 91//1 47//1
f 47//1 91//1 92//1
f 47//1 92//1 74//1
f 74//1 92//1 93//1
f 74//1 93//1 86//1
f 43//1 44//1 41//1
f 41//1 44//1 40//1
f 41//1 40//1 64//1
f 64//1 40//1 94//1
f 64//1 94//1 62//1
f 39//1 55//1 40//1
f 40//1 55//1 57//1
f 40//1 57//1 94//1
f 94//1 57//1 3//1
f 94//1 3//1 62//1
f 62//1 3//1 2//1
f 58//1 76//1 57//1
f 57//1 76//1 78//1
f 57//1 78//1 3//1
f 3//1 78//1 73//1
f 3//1 73//1 1//1
f 1//1 73//1 72//1
f 95//1 96//1 97//1
f 98//1 99//1 78//1
f 78//1 99//1 100//1
f 78//1 100//1 73//1
f 73//1 100//1 101//1
f 73//1 101//1 102//1
f 96//1 103//1 97//1
f 97//1 103//1 104//1
f 97//1 104//1 79//1
f 104//1 105//1 79//1
f 79//1 105//1 106//1
f 79//1 106//1 78//1
f 78//1 106//1 107//1
f 78//1 107//1 98//1
f 102//1 95//1 73//1
f 73//1 95//1 97//1
f 73//1 97//1 71//1
f 71//1 97//1 108//1
f 109//1 110//1 111//1
f 112//1 113//1 114//1
f 113//1 115//1 114//1
f 114//1 115//1 116//1
f 114//1 116//1 117//1
f 117//1 116//1 118//1
f 117//1 118//1 119//1
f 119//1 120//1 117//1
f 117//1 120//1 121//1
f 117//1 121//1 82//1
f 82//1 121//1 84//1
f 82//1 84//1 87//1
f 87//1 84//1 83//1
f 120//1 122//1 121//1
f 121//1 122//1 123//1
f 121//1 123//1 111//1
f 111//1 123//1 124//1
f 111//1 124//1 109//1
f 125//1 126//1 127//1
f 126//1 128//1 127//1
f 127//1 128//1 129//1
f 127//1 129//1 108//1
f 129//1 130//1 108//1
f 108//1 130//1 131//1
f 108//1 131//1 71//1
f 71//1 131//1 132//1
f 71//1 132//1 133//1
f 133//1 134//1 71//1
f 71//1 134//1 135//1
f 71//1 135//1 136//1
f 136//1 135//1 137//1
f 136//1 137//1 138//1
f 46//1 42//1 47//1
f 47//1 42//1 41//1
f 47//1 41//1 82//1
f 82//1 41//1 64//1
f 82//1 64//1 117//1
f 117//1 64//1 14//1
f 117//1 14//1 114//1
f 114//1 14//1 5//1
f 114//1 5//1 25//1
f 25//1 5//1 4//1
f 25//1 4//1 26//1
f 26//1 4//1 31//1
f 15//1 139//1 10//1
f 10//1 139//1 140//1
f 10//1 140//1 8//1
f 8//1 140//1 36//1
f 8//1 36//1 27//1
f 27//1 36//1 37//1
f 110//1 112//1 111//1
f 111//1 112//1 114//1
f 111//1 114//1 141//1
f 141//1 114//1 25//1
f 141//1 25//1 142//1
f 142//1 25//1 22//1
f 68//1 143//1 15//1
f 15//1 143//1 69//1
f 15//1 69//1 139//1
f 139//1 69//1 71//1
f 139//1 71//1 140//1
f 140//1 71//1 136//1
f 140//1 136//1 36//1
f 36//1 136//1 144//1
f 36//1 144//1 34//1
f 34//1 144//1 145//1
f 138//1 125//1 136//1
f 136//1 125//1 127//1
f 136//1 127//1 144//1
f 144//1 127//1 146//1
f 144//1 146//1 145//1
f 145//1 146//1 147//1
f 121//2 148//2 84//2
f 84//2 148//2 149//2
f 84//2 149//2 74//2
f 74//2 149//2 75//2
f 121//2 111//2 148//2
f 148//2 111//2 141//2
f 148//2 141//2 142//2
f 142//3 22//3 148//3
f 148//3 22//3 19//3
f 148//3 19//3 150//3
f 150//3 19//3 17//3
f 17//3 34//3 150//3
f 150//3 34//3 145//3
f 150//3 145//3 147//3
f 147//4 146//4 150//4
f 150//4 146//4 127//4
f 127//4 108//4 150//4
f 150//4 108//4 97//4
f 150//4 97//4 151//4
f 151//4 97//4 79//4
f 151//4 79//4 77//4
f 48//5 75//5 149//5
f 151//5 77//5 76//5
f 76//5 58//5 151//5
f 151//5 58//5 52//5
f 151//5 52//5 149//5
f 149//5 52//5 50//5
f 149//5 50//5 48//5
f 152//6 153//6 151//6
f 151//6 153//6 154//6
f 151//6 154//6 150//6
f 155//6 151//6 156//6
f 156//6 151//6 149//6
f 156//6 149//6 157//6
f 154//6 158//6 150//6
f 150//6 158//6 159//6
f 150//6 159//6 160//6
f 161//6 162//6 163//6
f 163//6 162//6 164//6
f 165//6 166//6 151//6
f 167//6 155//6 164//6
f 164//6 155//6 168//6
f 164//6 168//6 163//6
f 169//6 152//6 170//6
f 170//6 152//6 151//6
f 170//6 151//6 171//6
f 171//6 151//6 166//6
f 161//6 172//6 162//6
f 162//6 172//6 152//6
f 162//6 152//6 173//6
f 173//6 152//6 169//6
f 174//6 149//6 175//6
f 175//6 149//6 176//6
f 167//6 177//6 155//6
f 155//6 177//6 178//6
f 155//6 178//6 151//6
f 151//6 178//6 179//6
f 151//6 179//6 165//6
f 180//6 181//6 172//6
f 172//6 181//6 182//6
f 172//6 182//6 152//6
f 183//6 184//6 148//6
f 148//6 184//6 185//6
f 148//6 185//6 149//6
f 149//6 185//6 186//6
f 149//6 186//6 176//6
f 187//6 188//6 160//6
f 160//6 188//6 189//6
f 160//6 189//6 150//6
f 150//6 189//6 190//6
f 150//6 190//6 148//6
f 148//6 190//6 191//6
f 148//6 191//6 183//6
f 192//6 174//6 187//6
f 187//6 174//6 193//6
f 187//6 193//6 188//6
f 192//6 194//6 174//6
f 174//6 194//6 195//6
f 174//6 195//6 181//6
f 180//6 196//6 181//6
f 181//6 196//6 197//6
f 181//6 197//6 174//6
f 174//6 197//6 198//6
f 174//6 198//6 149//6
f 149//6 198//6 199//6
f 149//6 199//6 157//6
f 177//7 200//7 178//7
f 178//8 200//8 201//8
f 178//8 201//8 179//8
f 179//9 201//9 202//9
f 179//9 202//9 165//9
f 165//10 202//10 203//10
f 165//10 203//10 166//10
f 166//11 203//11 204//11
f 166//11 204//11 171//11
f 171//12 204//12 205//12
f 171//12 205//12 170//12
f 170//13 205//13 206//13
f 170//13 206//13 169//13
f 169//14 206//14 207//14
f 169//14 207//14 173//14
f 173//15 207//15 208//15
f 173//15 208//15 162//15
f 162//16 208//16 209//16
f 162//16 209//16 164//16
f 164//17 209//17 210//17
f 164//17 210//17 167//17
f 167//18 210//18 211//18
f 167//18 211//18 177//18
f 177//7 211//7 200//7
f 207//6 206//6 212//6
f 212//6 206//6 205//6
f 212//6 205//6 204//6
f 210//6 209//6 212//6
f 212//6 209//6 208//6
f 212//6 208//6 207//6
f 201//6 200//6 212//6
f 212//6 200//6 211//6
f 212//6 211//6 210//6
f 204//6 203//6 212//6
f 212//6 203//6 202//6
f 212//6 202//6 201//6
f 198//7 213//7 199//7
f 199//19 213//19 214//19
f 199//19 214//19 157//19
f 157//20 214//20 215//20
f 157//20 215//20 156//20
f 156//21 215//21 216//21
f 156//21 216//21 155//21
f 155//22 216//22 217//22
f 155//22 217//22 168//22
f 168//12 217//12 218//12
f 168//12 218//12 163//12
f 163//13 218//13 219//13
f 163//13 219//13 161//13
f 161//23 219//23 220//23
f 161//23 220//23 172//23
f 172//24 220//24 221//24
f 172//24 221//24 180//24
f 180//25 221//25 222//25
f 180//25 222//25 196//25
f 196//26 222//26 223//26
f 196//26 223//26 197//26
f 197//18 223//18 224//18
f 197//18 224//18 198//18
f 198//7 224//7 213//7
f 214//6 213//6 225//6
f 225//6 213//6 224//6
f 225//6 224//6 223//6
f 217//6 216//6 225//6
f 225//6 216//6 215//6
f 225//6 215//6 214//6
f 220//6 219//6 225//6
f 225//6 219//6 218//6
f 225//6 218//6 217//6
f 223//6 222//6 225//6
f 225//6 222//6 221//6
f 225//6 221//6 220//6
f 185//7 226//7 186//7
f 186//19 226//19 227//19
f 186//19 227//19 176//19
f 176//27 227//27 228//27
f 176//27 228//27 175//27
f 175//28 228//28 229//28
f 175//28 229//28 174//28
f 174//22 229//22 230//22
f 174//22 230//22 193//22
f 193//12 230//12 231//12
f 193//12 231//12 188//12
f 188//13 231//13 232//13
f 188//13 232//13 189//13
f 189//23 232//23 233//23
f 189//23 233//23 190//23
f 190//29 233//29 234//29
f 190//29 234//29 191//29
f 191//30 234//30 235//30
f 191//30 235//30 183//30
f 183//26 235//26 236//26
f 183//26 236//26 184//26
f 184//18 236//18 237//18
f 184//18 237//18 185//18
f 185//7 237//7 226//7
f 233//6 232//6 238//6
f 238//6 232//6 231//6
f 238//6 231//6 230//6
f 236//6 235//6 238//6
f 238//6 235//6 234//6
f 238//6 234//6 233//6
f 227//6 226//6 238//6
f 238//6 226//6 237//6
f 238//6 237//6 236//6
f 230//6 229//6 238//6
f 238//6 229//6 228//6
f 238//6 228//6 227//6
f 194//7 239//7 195//7
f 195//8 239//8 240//8
f 195//8 240//8 181//8
f 181//31 240//31 241//31
f 181//31 241//31 182//31
f 182//32 241//32 242//32
f 182//32 242//32 152//32
f 152//11 242//11 243//11
f 152//11 243//11 153//11
f 153//12 243//12 244//12
f 153//12 244//12 154//12
f 154//13 244//13 245//13
f 154//13 245//13 158//13
f 158//14 245//14 246//14
f 158//14 246//14 159//14
f 159//33 246//33 247//33
f 159//33 247//33 160//33
f 160//34 247//34 248//34
f 160//34 248//34 187//34
f 187//17 248//17 249//17
f 187//17 249//17 192//17
f 192//18 249//18 250//18
f 192//18 250//18 194//18
f 194//7 250//7 239//7
f 240//6 239//6 251//6
f 251//6 239//6 250//6
f 251//6 250//6 249//6
f 243//6 242//6 251//6
f 251//6 242//6 241//6
f 251//6 241//6 240//6
f 246//6 245//6 251//6
f 251//6 245//6 244//6
f 251//6 244//6 243//6
f 249//6 248//6 251//6
f 251//6 248//6 247//6
f 251//6 247//6 246//6
f 104//12 252//12 105//12
f 105//11 252//11 253//11
f 105//11 253//11 106//11
f 106//10 253//10 254//10
f 106//10 254//10 107//10
f 107//9 254//9 255//9
f 107//9 255//9 98//9
f 98//8 255//8 256//8
f 98//8 256//8 99//8
f 99//7 256//7 257//7
f 99//7 257//7 100//7
f 100//18 257//18 258//18
f 100//18 258//18 101//18
f 101//17 258//17 259//17
f 101//17 259//17 102//17
f 102//16 259//16 260//16
f 102//16 260//16 95//16
f 95//15 260//15 261//15
f 95//15 261//15 96//15
f 96//14 261//14 262//14
f 96//14 262//14 103//14
f 103//13 262//13 263//13
f 103//13 263//13 104//13
f 104//12 263//12 252//12
f 253//1 252//1 264//1
f 264//1 252//1 263//1
f 264//1 263//1 262//1
f 256//1 255//1 264//1
f 264//1 255//1 254//1
f 264//1 254//1 253//1
f 259//1 258//1 264//1
f 264//1 258//1 257//1
f 264//1 257//1 256//1
f 262//1 261//1 264//1
f 264//1 261//1 260//1
f 264//1 260//1 259//1
f 89//12 265//12 90//12
f 90//22 265//22 266//22
f 90//22 266//22 91//22
f 91//21 266//21 267//21
f 91//21 267//21 92//21
f 92//20 267//20 268//20
f 92//20 268//20 93//20
f 93//19 268//19 269//19
f 93//19 269//19 86//19
f 86//7 269//7 270//7
f 86//7 270//7 85//7
f 85//18 270//18 271//18
f 85//18 271//18 83//18
f 83//26 271//26 272//26
f 83//26 272//26 87//26
f 87//25 272//25 273//25
f 87//25 273//25 80//25
f 80//24 273//24 274//24
f 80//24 274//24 81//24
f 81//23 274//23 275//23
f 81//23 275//23 88//23
f 88//13 275//13 276//13
f 88//13 276//13 89//13
f 89//12 276//12 265//12
f 272//1 271//1 277//1
f 277//1 271//1 270//1
f 277//1 270//1 269//1
f 275//1 274//1 277//1
f 277//1 274//1 273//1
f 277//1 273//1 272//1
f 266//1 265//1 277//1
f 277//1 265//1 276//1
f 277//1 276//1 275//1
f 269//1 268//1 277//1
f 277//1 268//1 267//1
f 277//1 267//1 266//1
f 116//12 278//12 118//12
f 118//22 278//22 279//22
f 118//22 279//22 119//22
f 119//28 279//28 280//28
f 119//28 280//28 120//28
f 120//27 280//27 281//27
f 120//27 281//27 122//27
f 122//19 281//19 282//19
f 122//19 282//19 123//19
f 123//7 282//7 283//7
f 123//7 283//7 124//7
f 124//18 283//18 284//18
f 124//18 284//18 109//18
f 109//26 284//26 285//26
f 109//26 285//26 110//26
f 110//30 285//30 286//30
f 110//30 286//30 112//30
f 112//29 286//29 287//29
f 112//29 287//29 113//29
f 113//23 287//23 288//23
f 113//23 288//23 115//23
f 115//13 288//13 289//13
f 115//13 289//13 116//13
f 116//12 289//12 278//12
f 279//1 278//1 290//1
f 290//1 278//1 289//1
f 290//1 289//1 288//1
f 282//1 281//1 290//1
f 290//1 281//1 280//1
f 290//1 280//1 279//1
f 285//1 284//1 290//1
f 290//1 284//1 283//1
f 290//1 283//1 282//1
f 288//1 287//1 290//1
f 290//1 287//1 286//1
f 290//1 286//1 285//1
f 129//12 291//12 130//12
f 130//11 291//11 292//11
f 130//11 292//11 131//11
f 131//32 292//32 293//32
f 131//32 293//32 132//32
f 132//31 293//31 294//31
f 132//31 294//31 133//31
f 133//8 294//8 295//8
f 133//8 295//8 134//8
f 134//7 295//7 296//7
f 134//7 296//7 135//7
f 135//18 296//18 297//18
f 135//18 297//18 137//18
f 137//17 297//17 298//17
f 137//17 298//17 138//17
f 138//34 298//34 299//34
f 138//34 299//34 125//34
f 125//33 299//33 300//33
f 125//33 300//33 126//33
f 126//14 300//14 301//14
f 126//14 301//14 128//14
f 128//13 301//13 302//13
f 128//13 302//13 129//13
f 129//12 302//12 291//12
f 298//1 297//1 303//1
f 303//1 297//1 296//1
f 303//1 296//1 295//1
f 301//1 300//1 303//1
f 303//1 300//1 299//1
f 303//1 299//1 298//1
f 292//1 291//1 303//1
f 303//1 291//1 302//1
f 303//1 302//1 301//1
f 295//1 294//1 303//1
f 303//1 294//1 293//1
f 303//1 293//1 292//1
f 59//4 56//4 304//4
f 304//4 56//4 305//4
f 306//3 307//3 44//3
f 44//3 307//3 38//3
f 308//2 309//2 45//2
f 45//2 309//2 46//2
f 54//5 53//5 310//5
f 310//5 53//5 311//5
f 312//1 313//1 314//1
f 314//1 313//1 315//1
f 37//4 35//4 316//4
f 316//4 35//4 317//4
f 16//3 18//3 318//3
f 318//3 18//3 319//3
f 320//2 321//2 24//2
f 24//2 321//2 23//2
f 322//5 323//5 29//5
f 29//5 323//5 30//5
f 324//1 325//1 326//1
f 326//1 325//1 327//1
f 319//35 18//35 20//35
f 319//35 20//35 328//35
f 328//36 20//36 21//36
f 328//36 21//36 329//36
f 329//37 21//37 23//37
f 329//37 23//37 321//37
f 318//38 319//38 330//38
f 318//38 330//38 331//38
f 331//39 330//39 332//39
f 331//39 332//39 333//39
f 333//40 332//40 327//40
f 333//40 327//40 325//40
f 317//41 35//41 33//41
f 317//41 33//41 334//41
f 334//42 33//42 32//42
f 334//42 32//42 335//42
f 335//43 32//43 16//43
f 335//43 16//43 318//43
f 327//44 332//44 336//44
f 319//45 328//45 337//45
f 332//46 338//46 336//46
f 336//47 338//47 337//47
f 336//48 337//48 339//48
f 339//49 337//49 328//49
f 339//50 328//50 329//50
f 327//51 336//51 340//51
f 340//52 336//52 339//52
f 340//53 339//53 341//53
f 341//54 339//54 329//54
f 341//55 329//55 321//55
f 338//56 319//56 337//56
f 332//57 330//57 338//57
f 338//58 330//58 319//58
f 317//59 334//59 342//59
f 318//60 331//60 343//60
f 334//61 344//61 342//61
f 342//62 344//62 343//62
f 342//63 343//63 345//63
f 345//64 343//64 331//64
f 345//65 331//65 333//65
f 317//66 342//66 346//66
f 346//67 342//67 345//67
f 346//68 345//68 347//68
f 347//69 345//69 333//69
f 347//70 333//70 325//70
f 344//71 318//71 343//71
f 334//72 335//72 344//72
f 344//73 335//73 318//73
f 320//74 24//74 26//74
f 320//74 26//74 348//74
f 348//75 26//75 31//75
f 348//75 31//75 349//75
f 349//76 31//76 30//76
f 349//76 30//76 323//76
f 321//77 320//77 350//77
f 321//77 350//77 341//77
f 341//78 350//78 351//78
f 341//78 351//78 340//78
f 340//79 351//79 326//79
f 340//79 326//79 327//79
f 316//80 317//80 346//80
f 316//80 346//80 352//80
f 352//81 346//81 347//81
f 352//81 347//81 353//81
f 353//82 347//82 325//82
f 353//82 325//82 324//82
f 322//83 29//83 28//83
f 322//83 28//83 354//83
f 354//84 28//84 27//84
f 354//84 27//84 355//84
f 355//85 27//85 37//85
f 355//85 37//85 316//85
f 326//86 351//86 356//86
f 320//87 348//87 357//87
f 351//88 358//88 356//88
f 356//89 358//89 357//89
f 356//89 357//89 359//89
f 359//90 357//90 348//90
f 359//91 348//91 349//91
f 326//92 356//92 360//92
f 360//93 356//93 359//93
f 360//93 359//93 361//93
f 361//94 359//94 349//94
f 361//95 349//95 323//95
f 358//96 320//96 357//96
f 351//97 350//97 358//97
f 358//98 350//98 320//98
f 322//99 354//99 362//99
f 316//100 352//100 363//100
f 354//101 364//101 362//101
f 362//102 364//102 363//102
f 362//102 363//102 365//102
f 365//103 363//103 352//103
f 365//104 352//104 353//104
f 322//105 362//105 366//105
f 366//106 362//106 365//106
f 366//106 365//106 367//106
f 367//107 365//107 353//107
f 367//108 353//108 324//108
f 364//109 316//109 363//109
f 354//110 355//110 364//110
f 364//111 355//111 316//111
f 323//112 322//112 366//112
f 323//112 366//112 361//112
f 361//113 366//113 367//113
f 361//113 367//113 360//113
f 360//114 367//114 324//114
f 360//114 324//114 326//114
f 308//74 45//74 49//74
f 308//74 49//74 368//74
f 368//75 49//75 51//75
f 368//75 51//75 369//75
f 369//76 51//76 54//76
f 369//76 54//76 310//76
f 314//79 315//79 370//79
f 314//79 370//79 371//79
f 371//78 370//78 372//78
f 371//78 372//78 373//78
f 373//77 372//77 309//77
f 373//77 309//77 308//77
f 306//35 44//35 43//35
f 306//35 43//35 374//35
f 374//36 43//36 42//36
f 374//36 42//36 375//36
f 375//37 42//37 46//37
f 375//37 46//37 309//37
f 314//86 371//86 376//86
f 308//87 368//87 377//87
f 371//88 378//88 376//88
f 376//89 378//89 377//89
f 376//89 377//89 379//89
f 379//90 377//90 368//90
f 379//91 368//91 369//91
f 314//92 376//92 380//92
f 380//93 376//93 379//93
f 380//93 379//93 381//93
f 381//94 379//94 369//94
f 381//95 369//95 310//95
f 378//96 308//96 377//96
f 371//97 373//97 378//97
f 378//98 373//98 308//98
f 306//115 374//115 382//115
f 309//116 372//116 383//116
f 374//117 384//117 382//117
f 382//118 384//118 383//118
f 382//118 383//118 385//118
f 385//119 383//119 372//119
f 385//120 372//120 370//120
f 306//121 382//121 386//121
f 386//122 382//122 385//122
f 386//122 385//122 387//122
f 387//123 385//123 370//123
f 387//124 370//124 315//124
f 384//125 309//125 383//125
f 374//126 375//126 384//126
f 384//127 375//127 309//127
f 311//83 53//83 61//83
f 311//83 61//83 388//83
f 388//84 61//84 60//84
f 388//84 60//84 389//84
f 389//85 60//85 59//85
f 389//85 59//85 304//85
f 312//114 314//114 380//114
f 312//114 380//114 390//114
f 390//113 380//113 381//113
f 390//113 381//113 391//113
f 391//112 381//112 310//112
f 391//112 310//112 311//112
f 315//40 313//40 392//40
f 315//40 392//40 387//40
f 387//39 392//39 393//39
f 387//39 393//39 386//39
f 386//38 393//38 307//38
f 386//38 307//38 306//38
f 305//41 56//41 55//41
f 305//41 55//41 394//41
f 394//42 55//42 39//42
f 394//42 39//42 395//42
f 395//43 39//43 38//43
f 395//43 38//43 307//43
f 312//128 390//128 396//128
f 311//129 388//129 397//129
f 390//130 398//130 396//130
f 396//131 398//131 397//131
f 396//132 397//132 399//132
f 399//133 397//133 388//133
f 399//134 388//134 389//134
f 312//135 396//135 400//135
f 400//136 396//136 399//136
f 400//137 399//137 401//137
f 401//138 399//138 389//138
f 401//139 389//139 304//139
f 398//140 311//140 397//140
f 390//141 391//141 398//141
f 398//142 391//142 311//142
f 305//59 394//59 402//59
f 307//60 393//60 403//60
f 394//61 404//61 402//61
f 402//62 404//62 403//62
f 402//63 403//63 405//63
f 405//64 403//64 393//64
f 405//65 393//65 392//65
f 305//66 402//66 406//66
f 406//67 402//67 405//67
f 406//68 405//68 407//68
f 407//69 405//69 392//69
f 407//70 392//70 313//70
f 404//71 307//71 403//71
f 394//72 395//72 404//72
f 404//73 395//73 307//73
f 313//82 312//82 400//82
f 313//82 400//82 407//82
f 407//81 400//81 401//81
f 407//81 401//81 406//81
f 406//80 401//80 304//80
f 406//80 304//80 305//80
f 9//4 408//4 11//4
f 11//4 408//4 409//4
f 11//4 409//4 12//4
f 410//3 408//3 6//3
f 6//3 408//3 9//3
f 13//2 411//2 7//2
f 7//2 411//2 410//2
f 7//2 410//2 6//2
f 409//5 411//5 12//5
f 12//5 411//5 13//5
f 410//1 411//1 408//1
f 408//1 411//1 409//1
f 72//143 412//143 1//143
f 1//144 412//144 413//144
f 1//144 413//144 2//144
f 2//145 413//145 414//145
f 2//145 414//145 62//145
f 62//146 414//146 415//146
f 62//146 415//146 63//146
f 63//19 415//19 416//19
f 63//19 416//19 65//19
f 65//147 416//147 417//147
f 65//147 417//147 66//147
f 66//148 417//148 418//148
f 66//148 418//148 67//148
f 67//149 418//149 419//149
f 67//149 419//149 68//149
f 68//150 419//150 420//150
f 68//150 420//150 143//150
f 143//151 420//151 421//151
f 143//151 421//151 69//151
f 69//152 421//152 422//152
f 69//152 422//152 70//152
f 70//153 422//153 423//153
f 70//153 423//153 72//153
f 72//143 423//143 412//143
f 419//1 418//1 424//1
f 424//1 418//1 417//1
f 424//1 417//1 416//1
f 422//1 421//1 424//1
f 424//1 421//1 420//1
f 424//1 420//1 419//1
f 413//1 412//1 424//1
f 424//1 412//1 423//1
f 424//1 423//1 422//1
f 416//1 415//1 424//1
f 424//1 415//1 414//1
f 424//1 414//1 413//1
# Vertices: 424, normals: 153, texture coordinates: 0, faces: 844

