# File generated by ImageToStl.com - Free Image and 3D model conversion tools

o obj1
v -0.02999157 -0.03195356 0.030125
v -0.02999157 0.03195356 0.030125
v -0.02999157 -0.03195356 -0.030125
v -0.02999157 0.03195356 -0.030125
v 0.17108823 -0.00994061 0.030125
v 0.17108823 -0.00994061 -0.030125
v 0.1750267 -0.00864479 -0.030125
v 0.1750267 -0.00864479 0.030125
v 0.17810103 -0.00586287 -0.030125
v 0.17810103 -0.00586287 0.030125
v 0.17978276 -0.00207308 -0.030125
v 0.17978276 -0.00207308 0.030125
v 0.17978276 0.00207308 -0.030125
v 0.17978276 0.00207308 0.030125
v 0.17810103 0.00586287 -0.030125
v 0.17810103 0.00586287 0.030125
v 0.1750267 0.00864479 -0.030125
v 0.1750267 0.00864479 0.030125
v 0.17108823 0.00994061 -0.030125
v 0.17108823 0.00994061 0.030125
vn -1 0 0
vn 0.10882 -0.99406 0
vn 0.31254 -0.94991 0
vn 0.67096 -0.74149 0
vn 0.91405 -0.40561 0
vn 1 -0 -0
vn 0.91405 0.40561 -0
vn 0.67096 0.74149 -0
vn 0.31254 0.94991 -0
vn 0.10882 0.99406 -0
vn 0 0 1
vn -0 -0 -1
f 1//1 2//1 3//1
f 3//1 2//1 4//1
f 5//2 1//2 6//2
f 6//2 1//2 3//2
f 5//3 6//3 7//3
f 5//3 7//3 8//3
f 8//4 7//4 9//4
f 8//4 9//4 10//4
f 10//5 9//5 11//5
f 10//5 11//5 12//5
f 12//6 11//6 13//6
f 12//6 13//6 14//6
f 14//7 13//7 15//7
f 14//7 15//7 16//7
f 16//8 15//8 17//8
f 16//8 17//8 18//8
f 18//9 17//9 19//9
f 18//9 19//9 20//9
f 2//10 20//10 4//10
f 4//10 20//10 19//10
f 18//11 20//11 8//11
f 2//11 1//11 20//11
f 20//11 1//11 5//11
f 20//11 5//11 8//11
f 14//11 16//11 12//11
f 12//11 16//11 18//11
f 12//11 18//11 10//11
f 10//11 18//11 8//11
f 6//12 3//12 4//12
f 15//12 13//12 17//12
f 17//12 13//12 11//12
f 4//12 19//12 6//12
f 6//12 19//12 17//12
f 6//12 17//12 7//12
f 7//12 17//12 11//12
f 7//12 11//12 9//12
# Vertices: 20, normals: 12, texture coordinates: 0, faces: 36

