# File generated by ImageToStl.com - Free Image and 3D model conversion tools

o obj1
v 0.032 0.03025 -0.036
v 0.032 -0.03025 -0.036
v 0.032 0.03025 0.036
v 0.032 -0.03025 0.036
v 0.072 0.03025 -0.036
v 0.072 -0.03025 -0.036
v 0.072 -0.03025 0.036
v 0.072 0.03025 0.036
v 0.07825133 0.03025 -0.03545308
v 0.07825133 -0.03025 -0.03545308
v 0.08431272 0.03025 -0.03382893
v 0.08431272 -0.03025 -0.03382893
v 0.09 0.03025 -0.03117692
v 0.09 -0.03025 -0.03117692
v 0.09514035 0.03025 -0.0275776
v 0.09514035 -0.03025 -0.0275776
v 0.0995776 0.03025 -0.02314035
v 0.0995776 -0.03025 -0.02314035
v 0.10317691 0.03025 -0.018
v 0.10317691 -0.03025 -0.018
v 0.10582893 0.03025 -0.01231272
v 0.10582893 -0.03025 -0.01231272
v 0.10745308 0.03025 -0.00625133
v 0.10745308 -0.03025 -0.00625133
v 0.108 0.03025 -0
v 0.108 -0.03025 -0
v 0.10745308 0.03025 0.00625133
v 0.10745308 -0.03025 0.00625133
v 0.10582893 0.03025 0.01231272
v 0.10582893 -0.03025 0.01231272
v 0.10317691 0.03025 0.018
v 0.10317691 -0.03025 0.018
v 0.0995776 0.03025 0.02314035
v 0.0995776 -0.03025 0.02314035
v 0.09514035 0.03025 0.0275776
v 0.09514035 -0.03025 0.0275776
v 0.09 0.03025 0.03117691
v 0.09 -0.03025 0.03117691
v 0.08431272 0.03025 0.03382893
v 0.08431272 -0.03025 0.03382893
v 0.07825133 0.03025 0.03545308
v 0.07825133 -0.03025 0.03545308
vn -1 0 0
vn -0 -0 -1
vn 0 0 1
vn 0.08716 -0 -0.99619
vn 0.25882 -0 -0.96593
vn 0.42262 -0 -0.90631
vn 0.57358 -0 -0.81915
vn 0.70711 -0 -0.70711
vn 0.81915 -0 -0.57358
vn 0.90631 -0 -0.42262
vn 0.96593 -0 -0.25882
vn 0.99619 -0 -0.08716
vn 0.99619 -0 0.08716
vn 0.96593 -0 0.25882
vn 0.90631 -0 0.42262
vn 0.81915 -0 0.57358
vn 0.70711 -0 0.70711
vn 0.57358 -0 0.81915
vn 0.42262 -0 0.90631
vn 0.25882 -0 0.96593
vn 0.08716 -0 0.99619
vn -0 -1 0
vn 0 1 -0
f 1//1 2//1 3//1
f 3//1 2//1 4//1
f 1//2 5//2 2//2
f 2//2 5//2 6//2
f 7//3 8//3 4//3
f 4//3 8//3 3//3
f 6//4 5//4 9//4
f 6//4 9//4 10//4
f 10//5 9//5 11//5
f 10//5 11//5 12//5
f 12//6 11//6 13//6
f 12//6 13//6 14//6
f 14//7 13//7 15//7
f 14//7 15//7 16//7
f 16//8 15//8 17//8
f 16//8 17//8 18//8
f 18//9 17//9 19//9
f 18//9 19//9 20//9
f 20//10 19//10 21//10
f 20//10 21//10 22//10
f 22//11 21//11 23//11
f 22//11 23//11 24//11
f 24//12 23//12 25//12
f 24//12 25//12 26//12
f 26//13 25//13 27//13
f 26//13 27//13 28//13
f 28//14 27//14 29//14
f 28//14 29//14 30//14
f 30//15 29//15 31//15
f 30//15 31//15 32//15
f 32//16 31//16 33//16
f 32//16 33//16 34//16
f 34//17 33//17 35//17
f 34//17 35//17 36//17
f 36//18 35//18 37//18
f 36//18 37//18 38//18
f 38//19 37//19 39//19
f 38//19 39//19 40//19
f 40//20 39//20 41//20
f 40//20 41//20 42//20
f 42//21 41//21 8//21
f 42//21 8//21 7//21
f 4//22 2//22 7//22
f 7//22 2//22 6//22
f 10//22 40//22 6//22
f 6//22 40//22 42//22
f 6//22 42//22 7//22
f 10//22 12//22 40//22
f 40//22 12//22 14//22
f 40//22 14//22 16//22
f 40//22 22//22 24//22
f 30//22 32//22 28//22
f 28//22 32//22 34//22
f 28//22 34//22 36//22
f 16//22 18//22 40//22
f 40//22 18//22 20//22
f 40//22 20//22 22//22
f 24//22 26//22 40//22
f 40//22 26//22 28//22
f 40//22 28//22 38//22
f 38//22 28//22 36//22
f 1//23 3//23 5//23
f 5//23 3//23 8//23
f 8//23 41//23 5//23
f 5//23 41//23 39//23
f 5//23 39//23 9//23
f 17//23 15//23 39//23
f 25//23 33//23 27//23
f 27//23 33//23 31//23
f 27//23 31//23 29//23
f 15//23 13//23 39//23
f 39//23 13//23 11//23
f 39//23 11//23 9//23
f 37//23 35//23 21//23
f 21//23 35//23 33//23
f 21//23 33//23 23//23
f 23//23 33//23 25//23
f 37//23 21//23 39//23
f 39//23 21//23 19//23
f 39//23 19//23 17//23
# Vertices: 42, normals: 23, texture coordinates: 0, faces: 80

