# File generated by ImageToStl.com - Free Image and 3D model conversion tools

o obj1
v 0.07758139 0.00588821 0.033125
v 0.07758139 0.00588821 -0.033125
v 0.07504568 0.01132605 0.033125
v 0.07504568 0.01132605 -0.033125
v 0.04495431 -0.00932605 0.033125
v 0.04241861 -0.0038882 0.033125
v 0.04495431 -0.00932605 -0.033125
v 0.04241861 -0.0038882 -0.033125
vn 0.90631 0.42262 0
vn -0 -0 1
vn -0.90631 -0.42262 -0
vn 0 0 -1
vn 0.42262 -0.90631 -0
vn -0.42262 0.90631 0
f 1//1 2//1 3//1
f 3//1 2//1 4//1
f 5//2 1//2 6//2
f 6//2 1//2 3//2
f 7//3 5//3 8//3
f 8//3 5//3 6//3
f 2//4 7//4 4//4
f 4//4 7//4 8//4
f 5//5 7//5 1//5
f 1//5 7//5 2//5
f 8//6 6//6 4//6
f 4//6 6//6 3//6
# Vertices: 8, normals: 6, texture coordinates: 0, faces: 12

